<svg version="1.1" id="Layer_1" xmlns="http://www.w3.org/2000/svg" xmlns:xlink="http://www.w3.org/1999/xlink" x="0px" y="0px"
	 width="100%" viewBox="0 0 512 512" enable-background="new 0 0 512 512" xml:space="preserve">
<path fill="transparent" opacity="1.000000" stroke="none" 
	d="
M341.000000,513.000000 
	C227.360947,513.000000 114.221886,513.000000 1.041413,513.000000 
	C1.041413,342.402588 1.041413,171.805161 1.041413,1.103867 
	C171.555725,1.103867 342.111542,1.103867 512.833679,1.103867 
	C512.833679,171.666534 512.833679,342.333252 512.833679,513.000000 
	C455.805145,513.000000 398.652557,513.000000 341.000000,513.000000 
M182.334503,319.292908 
	C178.455246,323.065155 174.575989,326.837402 170.951263,330.362152 
	C175.389923,334.748016 179.323425,338.634766 183.631729,342.891846 
	C187.009842,339.396698 190.558105,335.725494 194.705032,331.792816 
	C196.468704,329.848114 198.232376,327.903412 200.713104,325.974243 
	C209.744644,331.023773 218.776169,336.073334 227.906754,341.944611 
	C228.989838,347.313019 230.072906,352.681427 231.043625,358.893982 
	C231.473282,362.108459 231.902939,365.322968 232.346054,368.638184 
	C248.981613,368.638184 265.313995,368.638184 281.778656,368.638184 
	C282.156525,364.883820 282.500397,361.466949 283.224548,357.331024 
	C284.171143,351.899628 285.117706,346.468262 286.688812,340.691681 
	C291.258026,338.541351 295.938538,336.595520 300.365936,334.184753 
	C305.039551,331.639893 309.471710,328.651672 314.246857,326.479675 
	C315.829010,328.014526 317.411194,329.549377 319.302124,331.667389 
	C323.056030,335.562347 326.809967,339.457336 330.082520,342.852875 
	C334.706604,338.520233 338.741730,334.739441 343.007446,330.742584 
	C338.990509,326.789917 335.111847,322.973328 330.867950,318.540558 
	C329.203766,316.572815 327.539581,314.605072 326.255646,312.103424 
	C330.823151,304.166656 335.390625,296.229919 340.864075,288.120087 
	C346.257507,287.702820 351.650940,287.285522 357.914246,286.964508 
	C363.828125,286.613373 369.744476,286.299072 375.655396,285.903748 
	C389.433594,284.982178 403.209167,284.021576 416.994995,284.004425 
	C416.997253,291.498810 416.964600,298.993408 417.011139,306.487518 
	C417.062195,314.707611 423.256348,320.921600 431.446472,320.991364 
	C439.938477,321.063721 448.430908,321.083832 456.979370,322.046692 
	C456.986206,372.511505 456.990936,422.976288 457.001709,473.441101 
	C457.003784,483.256256 462.840454,488.994202 472.797302,489.000153 
	C483.199707,489.006317 488.997375,483.424042 488.997894,473.366028 
	C489.001312,409.244019 488.998871,345.122009 489.783173,280.985016 
	C495.085785,280.850952 497.030731,277.805603 497.006622,272.862427 
	C496.955475,262.369904 497.041931,251.876633 496.973969,241.384293 
	C496.934509,235.295273 495.214539,233.581741 488.999664,232.062683 
	C488.999756,168.272400 489.013336,104.482101 488.947815,40.691891 
	C488.945343,38.283089 488.654510,35.657978 487.677399,33.506340 
	C484.405334,26.301243 476.212067,22.837772 467.888885,25.210218 
	C461.804657,26.944466 456.838135,33.004826 456.870758,40.478531 
	C457.092346,91.275909 456.948730,142.074875 455.998932,192.955139 
	C447.839813,192.970886 439.680420,192.951797 431.521606,193.012131 
	C423.282440,193.073074 417.076385,199.240692 417.014191,207.444473 
	C416.954834,215.270325 416.991394,223.096909 416.064636,230.979416 
	C407.998016,230.607208 399.922180,230.372498 391.867004,229.830032 
	C380.251587,229.047791 368.651154,228.042099 356.148560,227.015808 
	C350.753723,226.582489 345.358917,226.149170 339.547821,225.157242 
	C335.104004,213.730881 328.696014,203.569290 319.763733,194.253189 
	C316.193298,191.329956 312.719971,188.277695 309.036224,185.505005 
	C289.014496,170.435059 266.387573,166.522644 242.040085,169.959213 
	C224.123184,172.488129 208.953979,180.668472 195.852982,192.758896 
	C185.894211,201.949478 178.928238,213.303436 173.115768,225.923615 
	C171.776611,225.912094 170.437439,225.900574 169.046921,224.966934 
	C169.031281,212.322815 169.069092,199.678345 168.983932,187.034698 
	C168.909027,175.910904 170.428558,177.287613 158.763351,176.910751 
	C153.983292,176.756332 152.866241,178.651489 152.925415,183.029892 
	C153.123291,197.667877 152.994980,212.310303 152.154037,227.055527 
	C147.104614,227.356094 142.055191,227.656677 137.002731,227.025574 
	C137.001831,221.874039 137.068344,216.721436 136.986389,211.571182 
	C136.799194,199.807587 138.941208,201.173325 125.824104,200.954620 
	C122.092087,200.892410 120.889877,202.370071 120.952965,205.960709 
	C121.093033,213.933609 120.939011,221.911697 119.995369,229.969772 
	C112.334923,230.287811 104.674484,230.605865 97.004974,229.996170 
	C97.002617,222.502350 97.039047,215.008255 96.987495,207.514771 
	C96.930862,199.282120 90.754601,193.085159 82.551689,193.010086 
	C74.060387,192.932388 65.568520,192.916275 57.020664,191.953323 
	C57.013721,141.485428 57.009510,91.017532 56.997490,40.549641 
	C56.995144,30.697906 51.200783,25.003796 41.213921,24.999353 
	C30.775900,24.994709 25.002584,30.545898 25.002054,40.622185 
	C24.998678,104.748123 25.001085,168.874054 24.219168,233.014648 
	C18.972113,233.228683 16.974232,236.251877 16.994946,241.185196 
	C17.038954,251.666763 16.957737,262.148987 17.025978,272.630310 
	C17.065519,278.703522 18.789898,280.418335 25.000475,281.937317 
	C25.000278,345.723724 24.994518,409.510162 25.026262,473.296570 
	C25.027233,475.247040 25.032940,477.340424 25.694387,479.123047 
	C28.634844,487.047791 36.336182,490.883026 45.634544,488.880951 
	C51.973930,487.515991 57.178555,480.786041 57.143383,473.511871 
	C56.897789,422.717834 57.051315,371.921906 58.001148,321.044830 
	C66.163399,321.029266 74.325844,321.043793 82.487839,320.989685 
	C90.742653,320.934967 96.931786,314.783783 96.987495,306.563751 
	C97.040550,298.734802 97.008606,290.905334 97.935211,283.019714 
	C105.837387,283.376678 113.749237,283.590698 121.639481,284.124176 
	C133.419540,284.920685 145.184387,285.942322 157.851425,286.984192 
	C163.206909,287.367889 168.562378,287.751587 174.265137,288.761047 
	C175.414383,291.287140 176.385864,293.913910 177.747971,296.319489 
	C181.117371,302.270081 184.665604,308.119415 187.519547,314.247284 
	C185.988434,315.830963 184.457321,317.414673 182.334503,319.292908 
z"/>
<path fill="#676767" opacity="1.000000" stroke="none" 
	d="
M188.141983,314.009460 
	C184.665604,308.119415 181.117371,302.270081 177.747971,296.319489 
	C176.385864,293.913910 175.414383,291.287140 174.070801,288.049591 
	C172.247284,279.888275 170.618103,272.438385 169.013351,264.523224 
	C169.022873,259.041016 169.007996,254.024124 169.136139,248.635574 
	C170.825348,240.797424 172.371506,233.330917 173.917664,225.864426 
	C178.928238,213.303436 185.894211,201.949478 195.852982,192.758896 
	C208.953979,180.668472 224.123184,172.488129 242.040085,169.959213 
	C266.387573,166.522644 289.014496,170.435059 309.036224,185.505005 
	C312.719971,188.277695 316.193298,191.329956 319.574432,194.662949 
	C309.977173,204.311096 300.569244,213.549484 290.840607,222.570343 
	C288.360657,220.836838 286.201355,219.320877 283.844360,217.535828 
	C277.441345,214.826050 271.236053,212.385345 264.674988,209.730087 
	C259.201477,209.656784 254.083694,209.798035 248.568527,209.951126 
	C242.098450,212.576782 236.025757,215.190582 229.614929,217.893387 
	C225.452835,221.974243 221.628876,225.966110 217.538284,230.158630 
	C214.828491,236.561996 212.385361,242.764740 209.726486,249.322723 
	C209.655396,254.795609 209.800049,259.913208 209.956223,265.428284 
	C212.580994,271.899261 215.194229,277.972717 217.894531,284.384827 
	C221.973541,288.548401 225.965485,292.373322 230.160522,296.462463 
	C236.565186,299.169952 242.766739,301.613281 249.324600,304.269958 
	C254.796997,304.339630 259.913086,304.195892 265.426697,304.040863 
	C271.898315,301.417114 277.972443,298.804718 284.387604,296.105103 
	C286.881226,294.398956 289.033783,292.779968 291.436157,291.420471 
	C300.802826,300.796600 309.919769,309.913239 318.848877,319.301208 
	C317.110504,321.667389 315.559937,323.762268 314.009369,325.857147 
	C309.471710,328.651672 305.039551,331.639893 300.365936,334.184753 
	C295.938538,336.595520 291.258026,338.541351 285.964294,340.861572 
	C271.289185,344.292603 257.273346,346.612976 242.915024,343.946106 
	C237.878220,343.010529 232.843414,342.064270 227.807693,341.122894 
	C218.776169,336.073334 209.744644,331.023773 200.282669,325.634003 
	C195.948822,321.532318 192.045395,317.770905 188.141983,314.009460 
z"/>
<path fill="#676767" opacity="1.000000" stroke="none" 
	d="
M25.001585,233.000000 
	C25.001085,168.874054 24.998678,104.748123 25.002054,40.622185 
	C25.002584,30.545898 30.775900,24.994709 41.213921,24.999353 
	C51.200783,25.003796 56.995144,30.697906 56.997490,40.549641 
	C57.009510,91.017532 57.013721,141.485428 57.033028,192.890106 
	C57.001606,206.846359 56.957825,219.865829 56.453278,232.917877 
	C45.662201,232.966965 35.331894,232.983475 25.001585,233.000000 
z"/>
<path fill="#676767" opacity="1.000000" stroke="none" 
	d="
M57.077026,321.126556 
	C57.051315,371.921906 56.897789,422.717834 57.143383,473.511871 
	C57.178555,480.786041 51.973930,487.515991 45.634544,488.880951 
	C36.336182,490.883026 28.634844,487.047791 25.694387,479.123047 
	C25.032940,477.340424 25.027233,475.247040 25.026262,473.296570 
	C24.994518,409.510162 25.000278,345.723724 25.469639,281.468658 
	C36.263870,281.038208 46.588940,281.076416 56.931728,281.575775 
	C56.991974,295.066803 57.034500,308.096680 57.077026,321.126556 
z"/>
<path fill="#676767" opacity="1.000000" stroke="none" 
	d="
M488.998322,281.000000 
	C488.998871,345.122009 489.001312,409.244019 488.997894,473.366028 
	C488.997375,483.424042 483.199707,489.006317 472.797302,489.000153 
	C462.840454,488.994202 457.003784,483.256256 457.001709,473.441101 
	C456.990936,422.976288 456.986206,372.511505 456.967041,321.109894 
	C456.998474,307.153625 457.042236,294.134155 457.546783,281.082123 
	C468.337799,281.033051 478.668060,281.016541 488.998322,281.000000 
z"/>
<path fill="#676767" opacity="1.000000" stroke="none" 
	d="
M456.923065,192.873337 
	C456.948730,142.074875 457.092346,91.275909 456.870758,40.478531 
	C456.838135,33.004826 461.804657,26.944466 467.888885,25.210218 
	C476.212067,22.837772 484.405334,26.301243 487.677399,33.506340 
	C488.654510,35.657978 488.945343,38.283089 488.947815,40.691891 
	C489.013336,104.482101 488.999756,168.272400 488.530579,232.531342 
	C477.736328,232.961777 467.411163,232.923538 457.068298,232.424164 
	C457.008057,218.933105 456.965576,205.903229 456.923065,192.873337 
z"/>
<path fill="#4E4E4F" opacity="1.000000" stroke="none" 
	d="
M456.460999,192.914246 
	C456.965576,205.903229 457.008057,218.933105 456.622223,232.451538 
	C449.029755,233.171997 449.013733,233.171982 449.004272,240.254578 
	C448.989899,251.051636 448.997009,261.848724 449.001221,272.645813 
	C449.004425,280.802307 449.008728,280.802307 457.086029,281.114685 
	C457.042236,294.134155 456.998474,307.153625 456.938904,320.649933 
	C448.430908,321.083832 439.938477,321.063721 431.446472,320.991364 
	C423.256348,320.921600 417.062195,314.707611 417.011139,306.487518 
	C416.964600,298.993408 416.997253,291.498810 416.993256,283.066833 
	C416.989594,265.060577 416.987671,247.991867 416.985779,230.923172 
	C416.991394,223.096909 416.954834,215.270325 417.014191,207.444473 
	C417.076385,199.240692 423.282440,193.073074 431.521606,193.012131 
	C439.680420,192.951797 447.839813,192.970886 456.460999,192.914246 
z"/>
<path fill="#4E4E4F" opacity="1.000000" stroke="none" 
	d="
M57.539085,321.085693 
	C57.034500,308.096680 56.991974,295.066803 57.377800,281.548401 
	C64.970284,280.827942 64.986275,280.827972 64.995697,273.745453 
	C65.010063,262.948364 65.003021,252.151306 64.998795,241.354233 
	C64.995598,233.197586 64.991234,233.197586 56.914043,232.885300 
	C56.957825,219.865829 57.001606,206.846359 57.061142,193.350052 
	C65.568520,192.916275 74.060387,192.932388 82.551689,193.010086 
	C90.754601,193.085159 96.930862,199.282120 96.987495,207.514771 
	C97.039047,215.008255 97.002617,222.502350 97.006912,230.933762 
	C97.010574,248.939590 97.012299,266.007843 97.014030,283.076080 
	C97.008606,290.905334 97.040550,298.734802 96.987495,306.563751 
	C96.931786,314.783783 90.742653,320.934967 82.487839,320.989685 
	C74.325844,321.043793 66.163399,321.029266 57.539085,321.085693 
z"/>
<path fill="#EB574A" opacity="1.000000" stroke="none" 
	d="
M319.036682,319.029907 
	C309.919769,309.913239 300.802826,300.796600 291.575562,291.188293 
	C293.038483,288.507385 294.611816,286.318085 296.455994,283.920715 
	C299.167999,277.484009 301.609161,271.255371 304.272644,264.675476 
	C304.348389,259.207153 304.201874,254.090088 304.044983,248.575272 
	C301.419189,242.073547 298.803741,235.969574 296.105408,229.538437 
	C294.402069,227.070129 292.781677,224.929001 291.161285,222.787888 
	C300.569244,213.549484 309.977173,204.311096 319.710999,194.964996 
	C328.696014,203.569290 335.104004,213.730881 339.729004,225.856613 
	C341.611084,234.064575 343.311981,241.573181 344.963654,249.537598 
	C344.946442,254.968292 344.978485,259.943176 344.884033,265.303284 
	C343.157745,273.223358 341.557922,280.758270 339.958099,288.293152 
	C335.390625,296.229919 330.823151,304.166656 325.763062,312.543396 
	C323.192505,314.998871 321.114594,317.014374 319.036682,319.029907 
z"/>
<path fill="#676767" opacity="1.000000" stroke="none" 
	d="
M416.525208,230.951294 
	C416.987671,247.991867 416.989594,265.060577 416.988647,282.603027 
	C403.209167,284.021576 389.433594,284.982178 375.655396,285.903748 
	C369.744476,286.299072 363.828125,286.613373 357.506897,286.527039 
	C358.371094,279.035187 359.642639,271.980804 360.921509,264.931366 
	C360.928833,264.936279 360.928101,264.919617 361.401062,264.938843 
	C363.361847,264.971893 364.849670,264.995239 366.337555,264.998016 
	C377.620148,265.019287 377.532318,265.021912 377.039764,253.795319 
	C376.895355,250.503754 375.747345,248.885574 372.331818,248.995163 
	C368.532867,249.117035 364.728271,249.061310 360.926300,249.074631 
	C360.926483,249.066345 360.911346,249.075745 360.832642,248.672256 
	C359.517395,241.223099 358.280853,234.177444 357.044342,227.131775 
	C368.651154,228.042099 380.251587,229.047791 391.867004,229.830032 
	C399.922180,230.372498 407.998016,230.607208 416.525208,230.951294 
z"/>
<path fill="#676767" opacity="1.000000" stroke="none" 
	d="
M97.474625,283.047913 
	C97.012299,266.007843 97.010574,248.939590 97.011444,231.397644 
	C104.674484,230.605865 112.334923,230.287811 120.909576,229.962891 
	C126.884453,229.289764 131.945114,228.623505 137.005768,227.957245 
	C142.055191,227.656677 147.104614,227.356094 152.856781,227.217316 
	C154.734344,227.516312 155.909195,227.653519 156.989227,228.189423 
	C155.625244,235.416885 154.356079,242.245605 153.079437,249.069611 
	C153.071960,249.064896 153.072525,249.081421 152.599518,249.061951 
	C150.638763,249.028458 149.151016,249.004807 147.663239,249.001968 
	C136.381073,248.980438 136.468765,248.977844 136.960342,260.202698 
	C137.104401,263.492401 138.248596,265.113892 141.665741,265.004883 
	C145.464493,264.883698 149.268936,264.941223 153.070419,264.929321 
	C153.069931,264.937744 153.084259,264.927460 153.162201,265.327637 
	C154.478668,272.774628 155.717178,279.821411 156.955704,286.868195 
	C145.184387,285.942322 133.419540,284.920685 121.639481,284.124176 
	C113.749237,283.590698 105.837387,283.376678 97.474625,283.047913 
z"/>
<path fill="#333333" opacity="1.000000" stroke="none" 
	d="
M457.546783,281.082123 
	C449.008728,280.802307 449.004425,280.802307 449.001221,272.645813 
	C448.997009,261.848724 448.989899,251.051636 449.004272,240.254578 
	C449.013733,233.171982 449.029755,233.171997 456.639954,232.912689 
	C467.411163,232.923538 477.736328,232.961777 488.530029,233.000000 
	C495.214539,233.581741 496.934509,235.295273 496.973969,241.384293 
	C497.041931,251.876633 496.955475,262.369904 497.006622,272.862427 
	C497.030731,277.805603 495.085785,280.850952 489.390747,280.992493 
	C478.668060,281.016541 468.337799,281.033051 457.546783,281.082123 
z"/>
<path fill="#333333" opacity="1.000000" stroke="none" 
	d="
M56.453278,232.917877 
	C64.991234,233.197586 64.995598,233.197586 64.998795,241.354233 
	C65.003021,252.151306 65.010063,262.948364 64.995697,273.745453 
	C64.986275,280.827972 64.970284,280.827942 57.360077,281.087280 
	C46.588940,281.076416 36.263870,281.038208 25.470263,281.000000 
	C18.789898,280.418335 17.065519,278.703522 17.025978,272.630310 
	C16.957737,262.148987 17.038954,251.666763 16.994946,241.185196 
	C16.974232,236.251877 18.972113,233.228683 24.610376,233.007324 
	C35.331894,232.983475 45.662201,232.966965 56.453278,232.917877 
z"/>
<path fill="#4E4E4F" opacity="1.000000" stroke="none" 
	d="
M227.857224,341.533752 
	C232.843414,342.064270 237.878220,343.010529 242.915024,343.946106 
	C257.273346,346.612976 271.289185,344.292603 285.652039,341.034149 
	C285.117706,346.468262 284.171143,351.899628 282.638367,357.721985 
	C272.154114,359.069641 262.264343,360.641571 252.355240,360.774902 
	C245.302307,360.869720 238.223343,359.027588 231.155991,358.049866 
	C230.072906,352.681427 228.989838,347.313019 227.857224,341.533752 
z"/>
<path fill="#333333" opacity="1.000000" stroke="none" 
	d="
M157.084030,227.790710 
	C155.909195,227.653519 154.734344,227.516312 153.275543,227.165070 
	C152.994980,212.310303 153.123291,197.667877 152.925415,183.029892 
	C152.866241,178.651489 153.983292,176.756332 158.763351,176.910751 
	C170.428558,177.287613 168.909027,175.910904 168.983932,187.034698 
	C169.069092,199.678345 169.031281,212.322815 168.691620,225.594452 
	C164.585556,226.744873 160.834793,227.267792 157.084030,227.790710 
z"/>
<path fill="#676767" opacity="1.000000" stroke="none" 
	d="
M231.099808,358.471924 
	C238.223343,359.027588 245.302307,360.869720 252.355240,360.774902 
	C262.264343,360.641571 272.154114,359.069641 282.448242,358.081543 
	C282.500397,361.466949 282.156525,364.883820 281.778656,368.638184 
	C265.313995,368.638184 248.981613,368.638184 232.346054,368.638184 
	C231.902939,365.322968 231.473282,362.108459 231.099808,358.471924 
z"/>
<path fill="#333333" opacity="1.000000" stroke="none" 
	d="
M137.004242,227.491409 
	C131.945114,228.623505 126.884453,229.289764 121.364334,229.921844 
	C120.939011,221.911697 121.093033,213.933609 120.952965,205.960709 
	C120.889877,202.370071 122.092087,200.892410 125.824104,200.954620 
	C138.941208,201.173325 136.799194,199.807587 136.986389,211.571182 
	C137.068344,216.721436 137.001831,221.874039 137.004242,227.491409 
z"/>
<path fill="#4E4E4F" opacity="1.000000" stroke="none" 
	d="
M157.403564,286.926208 
	C155.717178,279.821411 154.478668,272.774628 153.621338,265.339355 
	C158.998016,264.963440 163.993469,264.975983 168.988937,264.988525 
	C170.618103,272.438385 172.247284,279.888275 173.897156,287.736694 
	C168.562378,287.751587 163.206909,287.367889 157.403564,286.926208 
z"/>
<path fill="#4E4E4F" opacity="1.000000" stroke="none" 
	d="
M356.596436,227.073792 
	C358.280853,234.177444 359.517395,241.223099 360.373901,248.659943 
	C355.000214,249.061340 350.006561,249.071548 345.012878,249.081772 
	C343.311981,241.573181 341.611084,234.064575 339.937134,226.135910 
	C345.358917,226.149170 350.753723,226.582489 356.596436,227.073792 
z"/>
<path fill="#4E4E4F" opacity="1.000000" stroke="none" 
	d="
M360.914185,264.926453 
	C359.642639,271.980804 358.371094,279.035187 357.071960,286.478882 
	C351.650940,287.285522 346.257507,287.702820 340.411072,288.206604 
	C341.557922,280.758270 343.157745,273.223358 345.350159,265.325378 
	C350.933228,264.950348 355.923706,264.938385 360.914185,264.926453 
z"/>
<path fill="#4E4E4F" opacity="1.000000" stroke="none" 
	d="
M156.989227,228.189438 
	C160.834793,227.267792 164.585556,226.744873 168.717300,226.055511 
	C170.437439,225.900574 171.776611,225.912094 173.516724,225.894012 
	C172.371506,233.330917 170.825348,240.797424 168.670044,248.633774 
	C163.069565,249.027191 158.078232,249.050766 153.086914,249.074341 
	C154.356079,242.245605 155.625244,235.416885 156.989227,228.189438 
z"/>
<path fill="#E0564A" opacity="1.000000" stroke="none" 
	d="
M331.233154,319.156738 
	C335.111847,322.973328 338.990509,326.789917 343.007446,330.742584 
	C338.741730,334.739441 334.706604,338.520233 330.082520,342.852875 
	C326.809967,339.457336 323.056030,335.562347 319.348389,331.105072 
	C323.340820,326.747406 327.287018,322.952057 331.233154,319.156738 
z"/>
<path fill="#E0564A" opacity="1.000000" stroke="none" 
	d="
M194.106354,332.054260 
	C190.558105,335.725494 187.009842,339.396698 183.631729,342.891846 
	C179.323425,338.634766 175.389923,334.748016 170.951263,330.362152 
	C174.575989,326.837402 178.455246,323.065155 182.882812,319.367065 
	C186.989502,323.645538 190.547913,327.849884 194.106354,332.054260 
z"/>
<path fill="#4E4E4F" opacity="1.000000" stroke="none" 
	d="
M194.405670,331.923523 
	C190.547913,327.849884 186.989502,323.645538 183.178650,319.219788 
	C184.457321,317.414673 185.988434,315.830963 187.830765,314.128357 
	C192.045395,317.770905 195.948822,321.532318 199.924133,325.626221 
	C198.232376,327.903412 196.468704,329.848114 194.405670,331.923523 
z"/>
<path fill="#4E4E4F" opacity="1.000000" stroke="none" 
	d="
M331.050568,318.848633 
	C327.287018,322.952057 323.340820,326.747406 319.194000,330.813477 
	C317.411194,329.549377 315.829010,328.014526 314.128113,326.168396 
	C315.559937,323.762268 317.110504,321.667389 318.848877,319.301208 
	C321.114594,317.014374 323.192505,314.998871 325.572937,312.810364 
	C327.539581,314.605072 329.203766,316.572815 331.050568,318.848633 
z"/>
<path fill="#CAC9C8" opacity="1.000000" stroke="none" 
	d="
M304.055328,248.973038 
	C304.201874,254.090088 304.348389,259.207153 303.800720,264.671021 
	C296.806488,265.022400 290.503723,264.930969 284.208801,265.112457 
	C282.948822,265.148773 281.288605,265.940063 280.634796,266.927429 
	C280.236298,267.529175 281.107086,269.472137 281.926697,270.297028 
	C286.593079,274.993500 291.415649,279.534760 296.185150,284.128784 
	C294.611816,286.318085 293.038483,288.507385 291.325775,290.928833 
	C289.033783,292.779968 286.881226,294.398956 284.219879,295.803223 
	C279.422363,291.171143 275.214722,286.669708 270.785126,282.398499 
	C269.741211,281.391937 267.949219,281.161194 266.501343,280.573547 
	C266.005493,282.070709 265.118988,283.558228 265.081757,285.066711 
	C264.925690,291.391785 265.024017,297.723145 265.029175,304.052185 
	C259.913086,304.195892 254.796997,304.339630 249.329956,303.797516 
	C248.975632,296.815887 249.067505,290.517334 248.888779,284.226532 
	C248.852890,282.962708 248.075287,281.304321 247.091202,280.638428 
	C246.498047,280.237061 244.539124,281.092926 243.720978,281.910950 
	C239.045532,286.585785 234.528351,291.418915 229.957428,296.198242 
	C225.965485,292.373322 221.973541,288.548401 218.196472,284.217163 
	C222.829086,279.421661 227.330948,275.213593 231.602570,270.783539 
	C232.608978,269.739807 232.839340,267.947784 233.426697,266.500000 
	C231.929031,266.004608 230.440948,265.118835 228.932022,265.081726 
	C222.606308,264.926331 216.274353,265.025116 209.944687,265.030823 
	C209.800049,259.913208 209.655396,254.795609 210.199005,249.328278 
	C217.183243,248.975342 223.481949,249.067291 229.772964,248.888901 
	C231.037048,248.853058 232.696289,248.076859 233.361969,247.093033 
	C233.764023,246.498795 232.910706,244.538818 232.092926,243.720947 
	C227.418076,239.045502 222.584564,234.528671 217.804932,229.957977 
	C221.628876,225.966110 225.452835,221.974243 229.783081,218.195221 
	C234.579178,222.826111 238.787918,227.328247 243.218613,231.600204 
	C244.262314,232.606537 246.054123,232.836960 247.501785,233.424332 
	C247.996597,231.926285 248.881470,230.437759 248.918259,228.928543 
	C249.072479,222.602173 248.972672,216.269608 248.965912,209.939301 
	C254.083694,209.798035 259.201477,209.656784 264.669830,210.202454 
	C265.023956,217.184891 264.932281,223.483124 265.111176,229.773666 
	C265.147125,231.037476 265.924530,232.696396 266.908600,233.361618 
	C267.503082,233.763443 269.462128,232.909546 270.279999,232.091782 
	C274.955078,227.417221 279.471680,222.584152 284.042084,217.804916 
	C286.201355,219.320877 288.360657,220.836838 290.840607,222.570343 
	C292.781677,224.929001 294.402069,227.070129 295.811920,229.725769 
	C291.116882,234.614014 286.566956,238.924149 282.200867,243.413055 
	C281.284241,244.355469 281.043732,245.955490 280.491669,247.252487 
	C281.912598,247.828903 283.320831,248.863174 284.756622,248.902985 
	C291.185242,249.081100 297.621704,248.975937 304.055328,248.973038 
M250.343613,263.107819 
	C251.930481,263.969879 253.644119,265.716858 255.078079,265.511444 
	C258.145111,265.072113 261.777588,264.379211 263.879456,262.406311 
	C266.889893,259.580536 267.053314,254.979019 264.137695,251.986359 
	C262.118835,249.914139 258.414001,248.258621 255.592331,248.439713 
	C248.927643,248.867447 246.547073,255.403793 250.343613,263.107819 
z"/>
<path fill="#B3B1B3" opacity="1.000000" stroke="none" 
	d="
M265.426697,304.040863 
	C265.024017,297.723145 264.925690,291.391785 265.081757,285.066711 
	C265.118988,283.558228 266.005493,282.070709 266.501343,280.573547 
	C267.949219,281.161194 269.741211,281.391937 270.785126,282.398499 
	C275.214722,286.669708 279.422363,291.171143 283.878815,295.890381 
	C277.972443,298.804718 271.898315,301.417114 265.426697,304.040863 
z"/>
<path fill="#B3B1B3" opacity="1.000000" stroke="none" 
	d="
M248.568527,209.951141 
	C248.972672,216.269608 249.072479,222.602173 248.918259,228.928543 
	C248.881470,230.437759 247.996597,231.926285 247.501785,233.424332 
	C246.054123,232.836960 244.262314,232.606537 243.218613,231.600204 
	C238.787918,227.328247 234.579178,222.826111 230.121201,218.106216 
	C236.025757,215.190582 242.098450,212.576782 248.568527,209.951141 
z"/>
<path fill="#B3B1B3" opacity="1.000000" stroke="none" 
	d="
M283.844360,217.535828 
	C279.471680,222.584152 274.955078,227.417221 270.279999,232.091782 
	C269.462128,232.909546 267.503082,233.763443 266.908600,233.361618 
	C265.924530,232.696396 265.147125,231.037476 265.111176,229.773666 
	C264.932281,223.483124 265.023956,217.184891 265.025574,210.416992 
	C271.236053,212.385345 277.441345,214.826050 283.844360,217.535828 
z"/>
<path fill="#B3B1B3" opacity="1.000000" stroke="none" 
	d="
M217.538284,230.158630 
	C222.584564,234.528671 227.418076,239.045502 232.092926,243.720947 
	C232.910706,244.538818 233.764023,246.498795 233.361969,247.093033 
	C232.696289,248.076859 231.037048,248.853058 229.772964,248.888901 
	C223.481949,249.067291 217.183243,248.975342 210.414734,248.973022 
	C212.385361,242.764740 214.828491,236.561996 217.538284,230.158630 
z"/>
<path fill="#B3B1B3" opacity="1.000000" stroke="none" 
	d="
M230.160522,296.462463 
	C234.528351,291.418915 239.045532,286.585785 243.720978,281.910950 
	C244.539124,281.092926 246.498047,280.237061 247.091202,280.638428 
	C248.075287,281.304321 248.852890,282.962708 248.888779,284.226532 
	C249.067505,290.517334 248.975632,296.815887 248.973663,303.584137 
	C242.766739,301.613281 236.565186,299.169952 230.160522,296.462463 
z"/>
<path fill="#B3B1B3" opacity="1.000000" stroke="none" 
	d="
M209.956223,265.428284 
	C216.274353,265.025116 222.606308,264.926331 228.932022,265.081726 
	C230.440948,265.118835 231.929031,266.004608 233.426697,266.500000 
	C232.839340,267.947784 232.608978,269.739807 231.602570,270.783539 
	C227.330948,275.213593 222.829086,279.421661 218.109390,283.878510 
	C215.194229,277.972717 212.580994,271.899261 209.956223,265.428284 
z"/>
<path fill="#333333" opacity="1.000000" stroke="none" 
	d="
M153.079437,249.069611 
	C158.078232,249.050766 163.069565,249.027191 168.526993,249.005432 
	C169.007996,254.024124 169.022873,259.041016 169.013351,264.523224 
	C163.993469,264.975983 158.998016,264.963440 153.543396,264.939148 
	C153.084259,264.927460 153.069931,264.937744 153.058502,264.469818 
	C153.055557,259.028412 153.064041,254.054916 153.072525,249.081421 
	C153.072525,249.081421 153.071960,249.064896 153.079437,249.069611 
z"/>
<path fill="#B3B1B3" opacity="1.000000" stroke="none" 
	d="
M304.044983,248.575272 
	C297.621704,248.975937 291.185242,249.081100 284.756622,248.902985 
	C283.320831,248.863174 281.912598,247.828903 280.491669,247.252487 
	C281.043732,245.955490 281.284241,244.355469 282.200867,243.413055 
	C286.566956,238.924149 291.116882,234.614014 295.894836,230.052948 
	C298.803741,235.969574 301.419189,242.073547 304.044983,248.575272 
z"/>
<path fill="#B3B1B3" opacity="1.000000" stroke="none" 
	d="
M296.455994,283.920715 
	C291.415649,279.534760 286.593079,274.993500 281.926697,270.297028 
	C281.107086,269.472137 280.236298,267.529175 280.634796,266.927429 
	C281.288605,265.940063 282.948822,265.148773 284.208801,265.112457 
	C290.503723,264.930969 296.806488,265.022400 303.578430,265.022278 
	C301.609161,271.255371 299.167999,277.484009 296.455994,283.920715 
z"/>
<path fill="#333333" opacity="1.000000" stroke="none" 
	d="
M360.921509,264.931335 
	C355.923706,264.938385 350.933228,264.950348 345.476624,264.940186 
	C344.978485,259.943176 344.946442,254.968292 344.963654,249.537598 
	C350.006561,249.071548 355.000214,249.061340 360.452637,249.063431 
	C360.911346,249.075745 360.926483,249.066345 360.938171,249.533813 
	C360.942596,254.974045 360.935333,259.946838 360.928101,264.919617 
	C360.928101,264.919617 360.928833,264.936279 360.921509,264.931335 
z"/>
<path fill="#4E4E4F" opacity="1.000000" stroke="none" 
	d="
M361.401031,264.938843 
	C360.935333,259.946838 360.942596,254.974045 360.937988,249.542084 
	C364.728271,249.061310 368.532867,249.117035 372.331818,248.995163 
	C375.747345,248.885574 376.895355,250.503754 377.039764,253.795319 
	C377.532318,265.021912 377.620148,265.019287 366.337555,264.998016 
	C364.849670,264.995239 363.361847,264.971893 361.401031,264.938843 
z"/>
<path fill="#4E4E4F" opacity="1.000000" stroke="none" 
	d="
M152.599518,249.061951 
	C153.064041,254.054916 153.055557,259.028412 153.058990,264.461426 
	C149.268936,264.941223 145.464493,264.883698 141.665741,265.004883 
	C138.248596,265.113892 137.104401,263.492401 136.960342,260.202698 
	C136.468765,248.977844 136.381073,248.980438 147.663239,249.001968 
	C149.151016,249.004807 150.638763,249.028458 152.599518,249.061951 
z"/>
<path fill="#B3B1B3" opacity="1.000000" stroke="none" 
	d="
M250.112762,262.799255 
	C246.547073,255.403793 248.927643,248.867447 255.592331,248.439713 
	C258.414001,248.258621 262.118835,249.914139 264.137695,251.986359 
	C267.053314,254.979019 266.889893,259.580536 263.879456,262.406311 
	C261.777588,264.379211 258.145111,265.072113 255.078079,265.511444 
	C253.644119,265.716858 251.930481,263.969879 250.112762,262.799255 
z"/>
</svg>