<?xml version="1.0" standalone="no"?>
<!DOCTYPE svg PUBLIC "-//W3C//DTD SVG 20010904//EN"
 "http://www.w3.org/TR/2001/REC-SVG-20010904/DTD/svg10.dtd">
<svg version="1.0" xmlns="http://www.w3.org/2000/svg"
 width="512.000000pt" height="512.000000pt" viewBox="0 0 512.000000 512.000000"
 preserveAspectRatio="xMidYMid meet">

<g transform="translate(0.000000,512.000000) scale(0.100000,-0.100000)"
fill="#fff" stroke="none">
<path d="M2395 4831 c-123 -36 -191 -77 -280 -167 -66 -67 28 91 -1105 -1863
-615 -1061 -962 -1669 -978 -1715 -22 -60 -26 -89 -26 -191 0 -109 3 -128 30
-205 72 -205 230 -350 444 -407 61 -17 188 -18 2080 -18 1660 0 2025 2 2070
14 30 7 93 31 140 53 146 70 268 210 320 368 57 173 32 358 -71 525 -20 33
-461 794 -979 1690 -519 897 -957 1650 -974 1675 -75 111 -218 209 -352 244
-83 22 -241 20 -319 -3z m327 -224 c62 -28 139 -93 173 -147 44 -70 1930
-3337 1962 -3397 40 -78 49 -138 36 -230 -26 -181 -164 -317 -348 -343 -44 -6
-790 -10 -2031 -10 -1799 0 -1964 1 -2010 17 -211 71 -330 294 -266 500 12 37
373 673 987 1738 533 924 983 1703 1002 1731 31 47 97 105 153 134 92 48 245
52 342 7z"/>
</g>
</svg>
